<?xml version="1.0" standalone="no"?>
<!DOCTYPE svg PUBLIC "-//W3C//DTD SVG 20010904//EN"
 "http://www.w3.org/TR/2001/REC-SVG-20010904/DTD/svg10.dtd">
<svg version="1.0" xmlns="http://www.w3.org/2000/svg"
 width="16.000000pt" height="16.000000pt" viewBox="0 0 16.000000 16.000000"
 preserveAspectRatio="xMidYMid meet">
<metadata>
Created by potrace 1.11, written by Peter Selinger 2001-2013
</metadata>
<g transform="translate(0.000000,16.000000) scale(0.002667,-0.002667)"
fill="#000000" stroke="none">
<path d="M1543 5583 c-4 -10 -9 -20 -12 -23 -3 -3 -26 -45 -51 -94 -25 -50
-70 -137 -101 -195 -31 -59 -100 -191 -154 -296 -54 -104 -117 -226 -140 -270
-24 -44 -84 -161 -135 -260 -122 -236 -209 -405 -280 -540 -57 -109 -128 -246
-270 -520 -40 -77 -101 -195 -137 -262 l-64 -122 62 -118 c34 -65 100 -192
146 -283 47 -91 107 -205 133 -255 50 -95 130 -249 275 -530 48 -93 109 -210
135 -260 26 -49 82 -157 125 -240 43 -82 110 -213 151 -290 166 -320 236 -454
276 -532 24 -46 45 -83 48 -83 5 0 41 68 212 400 50 96 107 207 128 245 21 39
77 147 125 240 48 94 113 220 145 280 31 61 92 178 135 260 43 83 103 200 135
260 32 61 89 171 128 245 179 346 219 423 279 537 l64 123 -77 147 c-42 82
-102 198 -134 258 -32 61 -92 178 -135 260 -43 83 -97 186 -120 230 -23 44
-84 161 -135 260 -95 185 -136 263 -281 540 -46 88 -84 162 -84 165 0 3 -7 16
-14 30 -48 87 -89 165 -166 315 -205 397 -205 397 -212 378z"/>
<path d="M4402 5508 c-23 -46 -74 -144 -113 -218 -72 -139 -189 -363 -323
-623 -43 -82 -93 -179 -112 -215 -45 -85 -49 -93 -61 -117 -5 -11 -45 -87 -88
-170 -43 -82 -106 -204 -140 -270 -34 -66 -89 -172 -122 -235 -33 -63 -98
-187 -143 -275 -45 -88 -109 -211 -142 -272 l-59 -113 77 -147 c42 -82 98
-188 124 -238 26 -49 87 -166 135 -260 48 -93 111 -215 140 -270 29 -55 87
-167 130 -250 43 -82 103 -199 135 -260 31 -60 92 -177 135 -260 43 -82 104
-199 135 -260 32 -60 95 -182 140 -270 178 -343 195 -375 200 -375 3 0 25 37
48 83 23 45 72 138 108 207 36 69 115 222 176 340 61 118 130 251 153 295 23
44 77 148 120 230 43 83 103 200 135 260 87 168 189 363 280 540 46 88 104
201 130 250 26 50 82 156 124 237 l77 148 -64 122 c-35 68 -99 191 -142 273
-43 83 -103 200 -135 260 -78 150 -170 327 -275 530 -48 94 -109 211 -135 260
-26 50 -84 162 -130 250 -46 88 -106 205 -135 260 -29 55 -98 188 -153 295
-149 289 -176 340 -182 340 -3 0 -25 -37 -48 -82z"/>
</g>
</svg>
